<svg width="16" height="16" viewBox="0 0 16 16" fill="none" xmlns="http://www.w3.org/2000/svg">
<rect width="16" height="16" rx="4" fill="white"/>
<path fill-rule="evenodd" clip-rule="evenodd" d="M13.2631 7.99996C13.2631 8.94105 13.0662 9.83063 12.716 10.6198H8.32893C9.13901 9.38462 9.97366 7.88883 9.97366 6.36253C9.97366 4.3984 8.63762 2.74492 6.82095 2.2537C7.19999 2.15655 7.59463 2.10522 7.99998 2.10522C10.9067 2.10522 13.2631 4.74439 13.2631 7.99996ZM8.65786 6.36253C8.65786 4.73475 7.33239 3.41517 5.69734 3.41517C3.50963 3.41517 2.73682 6.20112 2.73682 7.99996C2.73682 11.2555 5.09321 13.8947 7.99997 13.8947C9.55874 13.8947 10.9592 13.1357 11.923 11.9298H5.69734C5.81307 11.7829 5.93426 11.6315 6.05876 11.476C7.21565 10.0308 8.65786 8.22911 8.65786 6.36253Z" fill="#7859CF"/>
</svg>
